<svg width="17" height="17" viewBox="0 0 17 17" fill="none" xmlns="http://www.w3.org/2000/svg">
<path d="M16.375 8.25C16.375 12.6094 12.8242 16.125 8.5 16.125C6.03906 16.125 3.78906 15.0352 2.27734 13.1016C2.06641 12.8555 2.13672 12.5039 2.38281 12.3281C2.62891 12.1172 2.98047 12.1875 3.15625 12.4336C4.45703 14.0859 6.39062 15 8.5 15C12.1914 15 15.25 11.9766 15.25 8.25C15.25 4.55859 12.1914 1.5 8.5 1.5C6.07422 1.5 3.85938 2.80078 2.66406 4.875H5.6875C5.96875 4.875 6.25 5.15625 6.25 5.4375C6.25 5.75391 5.96875 6 5.6875 6H1.1875C0.871094 6 0.625 5.75391 0.625 5.4375V0.9375C0.625 0.65625 0.871094 0.375 1.1875 0.375C1.46875 0.375 1.75 0.65625 1.75 0.9375V4.24219C3.15625 1.85156 5.6875 0.410156 8.5 0.410156C12.8242 0.410156 16.375 3.92578 16.375 8.25Z" fill="#00A3C9"/>
</svg>
